<?xml version="1.0" encoding="UTF-8"?>
<svg id="Layer_1" data-name="Layer 1" xmlns="http://www.w3.org/2000/svg" viewBox="0 0 235.76 43.62">
  <defs>
    <style>
      .cls-1, .cls-2 {
        fill: #231f20;
      }

      .cls-2 {
        stroke: #231f20;
        stroke-linecap: round;
        stroke-miterlimit: 10;
        stroke-width: 3.13px;
      }

      .cls-3 {
        fill: #f7931a;
      }

      .cls-4 {
        fill: #ff1b27;
      }
    </style>
  </defs>
  <path class="cls-3" d="M27.71,37.13V12.34c0-1.36.58-1.95,1.95-1.95h5.03c1.36,0,1.95.58,1.95,1.95v24.79c0,1.36-.58,1.95-1.95,1.95h-5.03c-1.36,0-1.95-.58-1.95-1.95Z"/>
  <path class="cls-3" d="M47.32,37.13v-18.79h-5.03c-1.36,0-1.95-.59-1.95-1.95v-4.05c0-1.36.58-1.95,1.95-1.95h18.98c1.36,0,1.95.58,1.95,1.95v4.05c0,1.36-.59,1.95-1.95,1.95h-5.03v18.79c0,1.36-.58,1.95-1.95,1.95h-5.03c-1.36,0-1.95-.58-1.95-1.95Z"/>
  <path d="M66.93,37.13V12.34c0-1.36.58-1.95,1.95-1.95h9.94c8.3,0,12.59,3.47,12.59,10.21s-4.21,10.21-12.59,10.21h-2.96v6.31c0,1.36-.58,1.95-1.95,1.95h-5.03c-1.36,0-1.95-.58-1.95-1.95ZM78.93,23.25c2.11,0,3.16-.9,3.16-2.65s-1.05-2.65-3.16-2.65h-3.08v5.3h3.08Z"/>
  <path class="cls-1" d="M126.76,37.13V12.34c0-1.36.58-1.95,1.95-1.95h9.94c8.3,0,12.59,3.47,12.59,10.21s-4.21,10.21-12.59,10.21h-2.96v6.31c0,1.36-.58,1.95-1.95,1.95h-5.03c-1.36,0-1.95-.58-1.95-1.95ZM138.76,23.25c2.11,0,3.16-.9,3.16-2.65s-1.05-2.65-3.16-2.65h-3.08v5.3h3.08Z"/>
  <path class="cls-3" d="M23.31,30.73c0-2.69-1.09-4.87-3.9-6.2,1.99-1.29,3.12-3.04,3.12-5.77,0-4.45-2.63-7.27-7.99-8.11v-3.4c0-1.13-.92-2.05-2.05-2.05s-2.05.92-2.05,2.05v3.13h-1.54v-3.13c0-1.13-.92-2.05-2.05-2.05s-2.05.92-2.05,2.05v3.13H1.95c-1.36,0-1.95.58-1.95,1.95v24.79c0,1.36.58,1.95,1.95,1.95h2.84v2.49c0,1.13.92,2.05,2.05,2.05s2.05-.92,2.05-2.05v-2.49h1.54v2.49c0,1.13.92,2.05,2.05,2.05s2.05-.92,2.05-2.05v-2.65c5.9-.68,8.77-3.55,8.77-8.18ZM8.93,16.86h1.52c1.71,0,2.77.86,2.77,2.57s-1.05,2.57-2.77,2.57h-1.52v-5.15ZM8.93,27.46h2.3c1.72,0,2.77.86,2.77,2.57s-1.05,2.57-2.77,2.57h-2.3v-5.15Z"/>
  <path class="cls-1" d="M106.72,10.07c-3.51.63-6.52,2.74-8.56,5.66,1.15-.97,2.51-1.51,3.86-1.43,2.98.17,4.76,3.29,4,6.97-.77,3.67-3.79,6.52-6.75,6.34-1.96-.11-3.4-1.5-3.94-3.49-.03.8-.01,1.61.08,2.42.85,7.84,7.31,13.15,14.41,11.89,7.11-1.29,12.19-8.67,11.31-16.5-.85-7.83-7.31-13.14-14.41-11.87Z"/>
  <line class="cls-2" x1="92.56" y1="8.88" x2="95.14" y2="11.28"/>
  <line class="cls-2" x1="101.06" y1="7.55" x2="98.1" y2="1.57"/>
  <line class="cls-2" x1="107.34" y1="5.78" x2="107.34" y2="2.52"/>
  <g>
    <path class="cls-4" d="M154.57,37.44c0-3.01,4.3-18.62,8.45-25.35.7-1.13,1.29-1.8,3.25-1.8h4.85c1.96,0,2.54.67,3.25,1.8,4.15,6.73,8.45,22.34,8.45,25.35,0,1.25-.67,1.64-1.64,1.64h-5.28c-1.76,0-2.5-.51-2.7-1.8-.2-1.17-.39-2.35-.63-3.52h-8.1c-.24,1.17-.47,2.35-.67,3.52-.23,1.29-.94,1.8-2.7,1.8h-4.89c-.98,0-1.64-.39-1.64-1.64ZM170.88,26.61c-.82-3.21-1.6-6.06-2.39-8.22-.78,2.15-1.56,5.01-2.39,8.22h4.77Z"/>
    <path class="cls-4" d="M200.64,37.21c-.78-2.7-1.6-4.73-2.78-6.88h-2.54v6.81c0,1.37-.59,1.96-1.96,1.96h-5.05c-1.37,0-1.95-.59-1.95-1.96V12.25c0-1.37.59-1.96,1.95-1.96h10.37c8.02,0,12.24,3.48,12.24,10.17,0,3.87-1.56,6.65-4.5,8.25,1.96,2.74,2.97,4.69,3.95,7.67.59,1.76.08,2.7-1.56,2.7h-5.36c-1.56,0-2.42-.55-2.82-1.88ZM198.41,23.05c2.11,0,3.17-.86,3.17-2.58s-1.06-2.58-3.17-2.58h-3.09v5.16h3.09Z"/>
    <path class="cls-4" d="M219.8,37.13v-18.86h-5.05c-1.37,0-1.95-.59-1.95-1.95v-4.07c0-1.37.59-1.96,1.95-1.96h19.05c1.37,0,1.95.59,1.95,1.96v4.07c0,1.37-.59,1.95-1.95,1.95h-5.05v18.86c0,1.37-.59,1.96-1.96,1.96h-5.05c-1.37,0-1.96-.59-1.96-1.96Z"/>
  </g>
</svg>