<svg xmlns="http://www.w3.org/2000/svg" viewBox="0 0 2000 1001" preserveAspectRatio="xMidYMid meet">
  <!-- Simplified world map based on Natural Earth data -->
  <g fill="#86efac" stroke="#22c55e" stroke-width="1" stroke-linejoin="round">
    <!-- North America -->
    <path d="M 150,250 L 140,230 L 145,210 L 160,195 L 180,188 L 200,185 L 220,187 L 240,193 L 260,203 L 280,218 L 295,238 L 305,260 L 310,283 L 308,305 L 300,325 L 285,343 L 265,357 L 245,365 L 225,368 L 205,365 L 185,357 L 170,343 L 158,323 L 152,300 L 150,278 Z M 175,160 L 195,155 L 215,158 L 230,167 L 240,182 L 243,200 L 238,215 L 225,225 L 208,228 L 190,223 L 177,210 L 172,193 L 173,175 Z M 260,170 L 275,168 L 288,173 L 295,185 L 295,200 L 288,213 L 275,218 L 260,215 L 250,205 L 248,190 L 252,178 Z"/>
    
    <!-- Central America -->
    <path d="M 265,370 L 280,368 L 295,373 L 303,385 L 305,400 L 300,413 L 288,420 L 273,422 L 260,417 L 253,405 L 252,390 L 257,378 Z"/>
    
    <!-- South America -->
    <path d="M 285,425 L 305,422 L 325,428 L 343,440 L 358,458 L 370,483 L 378,512 L 382,543 L 383,575 L 378,607 L 368,638 L 353,665 L 333,687 L 310,702 L 285,710 L 260,712 L 238,707 L 220,695 L 207,677 L 198,655 L 193,630 L 191,603 L 193,575 L 198,548 L 207,523 L 220,500 L 237,482 L 257,468 L 275,458 L 290,448 Z"/>
    
    <!-- Greenland -->
    <path d="M 350,80 L 380,75 L 410,82 L 435,98 L 450,120 L 455,145 L 448,168 L 432,185 L 410,195 L 383,198 L 358,193 L 338,180 L 325,160 L 320,135 L 327,110 L 340,92 Z"/>
    
    <!-- Iceland -->
    <ellipse cx="445" cy="148" rx="18" ry="12"/>
    
    <!-- British Isles -->
    <path d="M 485,195 L 495,188 L 507,190 L 512,200 L 515,215 L 512,230 L 505,240 L 495,245 L 485,243 L 478,235 L 475,223 L 477,208 L 482,198 Z"/>
    
    <!-- Scandinavia -->
    <path d="M 520,130 L 535,125 L 550,128 L 563,138 L 572,153 L 578,172 L 580,193 L 578,213 L 570,230 L 558,243 L 543,250 L 527,252 L 513,247 L 503,235 L 498,218 L 497,198 L 500,178 L 507,160 L 516,145 Z"/>
    
    <!-- Europe -->
    <path d="M 485,248 L 505,245 L 528,247 L 550,253 L 573,265 L 593,282 L 607,303 L 615,327 L 615,348 L 607,367 L 593,382 L 573,393 L 550,398 L 528,397 L 505,390 L 488,377 L 477,358 L 472,335 L 473,312 L 478,290 L 485,270 Z"/>
    
    <!-- Iberian Peninsula -->
    <path d="M 470,285 L 480,283 L 490,287 L 495,297 L 495,310 L 490,320 L 480,325 L 470,323 L 463,315 L 462,302 L 465,292 Z"/>
    
    <!-- Italy -->
    <path d="M 530,285 L 538,283 L 545,288 L 548,300 L 548,315 L 545,330 L 540,343 L 533,352 L 527,355 L 520,352 L 517,342 L 517,328 L 520,313 L 525,298 L 530,290 Z"/>
    
    <!-- Africa -->
    <path d="M 500,350 L 525,348 L 553,352 L 582,362 L 608,378 L 630,400 L 648,427 L 660,458 L 668,492 L 670,527 L 668,562 L 660,596 L 645,627 L 625,653 L 600,673 L 572,687 L 542,695 L 512,697 L 483,693 L 457,683 L 435,667 L 418,645 L 408,618 L 403,588 L 403,557 L 408,527 L 418,498 L 433,473 L 452,452 L 475,437 L 495,428 L 510,418 L 520,405 L 525,390 L 527,373 L 525,360 L 518,352 L 508,350 Z"/>
    
    <!-- Madagascar -->
    <path d="M 615,630 L 622,625 L 630,628 L 633,638 L 633,653 L 630,667 L 625,678 L 618,685 L 610,687 L 603,682 L 600,670 L 600,655 L 603,640 L 608,632 Z"/>
    
    <!-- Arabian Peninsula -->
    <path d="M 605,325 L 620,323 L 638,328 L 653,340 L 662,358 L 665,378 L 662,397 L 653,413 L 638,423 L 620,427 L 605,423 L 593,410 L 588,393 L 588,373 L 593,353 L 598,338 Z"/>
    
    <!-- Asia -->
    <path d="M 665,200 L 700,195 L 740,195 L 780,200 L 822,210 L 865,225 L 907,245 L 948,270 L 985,300 L 1018,335 L 1045,373 L 1063,413 L 1072,453 L 1073,492 L 1065,528 L 1050,560 L 1028,585 L 1000,603 L 968,613 L 935,618 L 902,618 L 870,612 L 840,600 L 815,583 L 795,560 L 782,533 L 775,503 L 773,472 L 777,442 L 787,413 L 802,387 L 822,365 L 847,347 L 875,333 L 905,323 L 937,317 L 970,315 L 1002,317 L 1032,323 L 1060,333 L 1085,347 L 1105,365 L 1120,387 L 1130,413 L 1135,442 L 1133,472 L 1125,500 L 1112,525 L 1093,545 L 1070,560 L 1043,570 L 1013,575 L 982,575 L 952,570 L 925,560 L 902,545 L 883,525 L 870,500 L 862,472 L 860,442 L 863,413 L 872,387 L 887,365 L 907,347 L 932,333 L 960,323 L 990,317 L 1020,315 L 1048,317 L 1073,323 L 1095,333 L 1112,347 L 1123,365 L 1128,387 L 1128,413 L 1123,438 L 1112,460 L 1095,478 L 1073,492 L 1048,500 L 1020,503 L 992,500 L 967,492 L 945,478 L 928,460 L 917,438 L 913,413 L 915,387 L 923,363 L 937,342 L 955,325 L 977,312 L 1002,303 L 1028,298 L 1055,297 L 1082,300 L 1107,307 L 1128,318 L 1145,333 L 1157,352 L 1163,375 L 1163,400 L 1157,423 L 1145,443 L 1128,458 L 1107,468 L 1082,473 L 1055,473 L 1028,468 L 1003,458 L 982,443 L 965,423 L 955,400 L 950,375 L 950,350 L 955,327 L 965,307 L 980,290 L 1000,277 L 1023,268 L 1048,263 L 1075,262 L 1102,265 L 1127,272 L 1148,283 L 1165,298 L 1177,318 L 1183,342 L 1183,367 L 1177,390 L 1165,410 L 1148,425 L 1127,435 L 1102,440 L 1075,440 L 1048,435 L 1023,425 L 1002,410 L 987,390 L 978,367 L 975,342 L 978,318 L 987,297 L 1002,280 L 1023,267 L 1048,258 L 1075,253 L 1103,252 L 1130,255 L 1155,263 L 1177,275 L 1193,292 L 1203,313 L 1208,337 L 1208,362 L 1203,385 L 1193,405 L 1177,420 L 1155,430 L 1130,435 L 1103,435 L 1075,430 L 1048,420 L 1025,405 L 1008,385 L 997,362 L 993,337 L 997,313 L 1008,292 L 1025,275 L 1048,263 L 1075,255 L 1103,252 Z"/>
    
    <!-- India -->
    <path d="M 735,345 L 753,343 L 770,348 L 785,360 L 795,377 L 800,397 L 800,418 L 795,438 L 785,455 L 770,467 L 753,473 L 735,473 L 720,467 L 708,455 L 700,438 L 697,418 L 700,397 L 710,377 L 723,360 Z"/>
    
    <!-- Southeast Asia -->
    <path d="M 875,395 L 895,393 L 915,398 L 930,410 L 938,427 L 940,447 L 935,465 L 923,478 L 905,485 L 885,487 L 868,482 L 855,470 L 848,453 L 847,433 L 852,415 L 862,402 Z"/>
    
    <!-- Japan -->
    <path d="M 1285,295 L 1295,290 L 1305,293 L 1310,303 L 1313,318 L 1313,335 L 1308,350 L 1300,360 L 1290,363 L 1280,360 L 1273,350 L 1270,335 L 1270,318 L 1275,305 Z"/>
    
    <!-- Philippines -->
    <ellipse cx="1165" cy="425" rx="20" ry="45"/>
    
    <!-- Indonesia -->
    <ellipse cx="1075" cy="510" rx="100" ry="25"/>
    <ellipse cx="1195" cy="520" rx="50" ry="22"/>
    <ellipse cx="1120" cy="495" rx="35" ry="15"/>
    
    <!-- Australia -->
    <path d="M 1235,590 L 1270,587 L 1310,593 L 1348,607 L 1382,628 L 1410,655 L 1428,688 L 1437,725 L 1437,762 L 1428,797 L 1410,827 L 1382,850 L 1348,865 L 1310,873 L 1270,873 L 1235,867 L 1202,852 L 1175,830 L 1155,802 L 1143,768 L 1140,732 L 1143,697 L 1155,665 L 1175,640 L 1200,620 Z"/>
    
    <!-- New Zealand -->
    <ellipse cx="1555" cy="785" rx="22" ry="50"/>
    <ellipse cx="1572" cy="845" rx="18" ry="32"/>
    
    <!-- Antarctica -->
    <ellipse cx="1000" cy="970" rx="850" ry="28"/>
  </g>
</svg>
