<?xml version="1.0" encoding="UTF-8"?>
<svg id="Layer_1" data-name="Layer 1" xmlns="http://www.w3.org/2000/svg" viewBox="0 0 841.89 595.28">
  <defs>
    <style>
      .cls-1, .cls-2, .cls-3 {
        fill: none;
      }

      .cls-1, .cls-2, .cls-3, .cls-4, .cls-5, .cls-6, .cls-7, .cls-8, .cls-9, .cls-10, .cls-11 {
        stroke: #000;
        stroke-linecap: round;
        stroke-linejoin: round;
      }

      .cls-1, .cls-4, .cls-5, .cls-9 {
        stroke-width: 6.54px;
      }

      .cls-2, .cls-8 {
        stroke-width: 7.1px;
      }

      .cls-3, .cls-7, .cls-10 {
        stroke-width: 6.99px;
      }

      .cls-4 {
        fill: #fcaa59;
      }

      .cls-5 {
        fill: #ecff1a;
      }

      .cls-6 {
        stroke-width: 6.49px;
      }

      .cls-6, .cls-7, .cls-8 {
        fill: #f7931a;
      }

      .cls-9, .cls-10 {
        fill: #ffc17d;
      }

      .cls-11 {
        fill: #fc942d;
        stroke-width: 6.97px;
      }
    </style>
  </defs>
  <g>
    <path class="cls-8" d="M260.7,430.04h-25.86v-18.53h13.19v-64.86h-13.19v-21.11h25.86v-13.72h20.7v13.72h15.55v-13.72h19.7v13.72h25.33v40.11h15.83v64.39h-41.17v16.89h-19.7v-16.89h-15.55v16.89h-20.7v-16.89s-1.58,0,0,0Z"/>
    <line class="cls-2" x1="341.98" y1="365.65" x2="302.08" y2="365.65"/>
    <line class="cls-2" x1="283.98" y1="348.17" x2="302.46" y2="348.17"/>
    <line class="cls-2" x1="283.98" y1="398.99" x2="306.63" y2="398.99"/>
  </g>
  <path class="cls-8" d="M357.81,429.92v-103.91h33.23v75.31h31.79v28.6s-65.55-.54-65.01,0Z"/>
  <rect class="cls-8" x="423.22" y="326.01" width="71" height="103.9"/>
  <line class="cls-2" x1="456.08" y1="367.08" x2="456.08" y2="394.96"/>
  <polygon class="cls-8" points="550.01 397.57 550.01 430.09 494.57 430.09 494.57 325.88 550.01 325.88 550.01 360.15 522.81 360.15 522.81 397.57 550.01 397.57"/>
  <polygon class="cls-8" points="550.01 430.09 550.01 325.88 582.22 325.88 582.22 367.14 595.06 326.05 629.77 326.05 609.55 378.61 632.14 430.09 596.24 430.09 582.44 394.36 582.44 430.09 550.01 430.09"/>
  <polygon class="cls-7" points="348.9 226.85 348.9 160.77 374.77 160.77 374.77 187.99 385.08 160.88 412.96 160.88 396.71 191.56 414.86 226.85 386.03 226.85 374.94 205.75 374.94 226.85 348.9 226.85"/>
  <polygon class="cls-7" points="217.43 160.77 217.43 182.41 239.49 182.41 239.49 226.85 259.07 226.85 259.07 182.41 281.73 182.41 281.73 160.77 217.43 160.77"/>
  <rect class="cls-7" x="282.22" y="160.77" width="21.14" height="21.14"/>
  <rect class="cls-7" x="282.22" y="181.98" width="21.14" height="44.88"/>
  <polygon class="cls-7" points="303.35 160.9 303.35 226.85 346.95 226.85 346.95 209.75 329.93 209.75 329.93 179.01 346.38 179.01 346.38 160.77 303.35 160.9"/>
  <polygon class="cls-10" points="591.74 226.85 591.74 160.77 617.61 160.77 617.61 187.99 627.92 160.88 655.8 160.88 639.56 191.56 657.7 226.85 628.87 226.85 617.78 205.75 617.78 226.85 591.74 226.85"/>
  <polygon class="cls-10" points="436.87 160.77 436.87 182.41 458.93 182.41 458.93 226.85 478.51 226.85 478.51 182.41 501.17 182.41 501.17 160.77 436.87 160.77"/>
  <polygon class="cls-10" points="546.2 160.9 546.2 226.85 589.79 226.85 589.79 209.75 572.77 209.75 572.77 179.01 589.22 179.01 589.22 160.77 546.2 160.9"/>
  <rect class="cls-10" x="501.4" y="160.81" width="44.52" height="65.89"/>
  <line class="cls-3" x1="523.69" y1="184.8" x2="523.69" y2="201.5"/>
  <path class="cls-6" d="M544.19,228.96h88.65v31.75h-25.8v63.24h-32.64v-64.17h-30.21s.5-30.35,0-30.82Z"/>
  <g>
    <rect class="cls-9" x="322.61" y="228.96" width="85.23" height="94.99"/>
    <line class="cls-1" x1="350.02" y1="228.96" x2="372.45" y2="253.38"/>
    <line class="cls-1" x1="363.98" y1="290.27" x2="387.41" y2="322.17"/>
  </g>
  <g>
    <rect class="cls-4" x="407.66" y="228.96" width="69.66" height="94.99"/>
    <line class="cls-5" x1="477.32" y1="256.4" x2="446.18" y2="256.4"/>
    <line class="cls-5" x1="475.73" y1="291.76" x2="446.18" y2="291.76"/>
  </g>
  <polygon class="cls-11" points="542.82 228.96 520.89 228.96 510.98 243.96 500.73 228.96 478.86 228.96 478.86 256.86 494.81 272.63 478.86 292.61 478.86 323.95 499.38 323.95 509.9 307.3 520.8 323.95 542.82 323.95 542.82 292.25 527 273.88 542.82 257.68 542.82 228.96"/>
</svg>