<?xml version="1.0" encoding="UTF-8"?>
<svg id="Layer_1" xmlns="http://www.w3.org/2000/svg" version="1.1" viewBox="0 0 841.89 595.28">
  <!-- Generator: Adobe Illustrator 30.2.1, SVG Export Plug-In . SVG Version: 2.1.1 Build 1)  -->
  <defs>
    <style>
      .st0, .st1, .st2 {
        stroke: #000;
        stroke-linecap: round;
        stroke-linejoin: round;
      }

      .st0, .st2 {
        stroke-width: 4.04px;
      }

      .st1 {
        stroke-width: 2.84px;
      }

      .st2, .st3 {
        fill: #fff;
      }
    </style>
  </defs>
  <path class="st1" d="M462.32,283.11l-.08-3.58s3.21-.53,4.33-.7l.43-3.12,6.01.42-.12,2.74s2.39.91,3.7,1.58l-.74,3.51-13.54-.85Z"/>
  <path class="st0" d="M448.52,295.49s.1,18.69-6.01,34.97-9.99,25.1-4.61,26.52c7.13,1.88,27.05,5.58,34.7,2.31s15.7-46.93,15.97-59.77c0,0-19.16-11.28-40.05-4.03Z"/>
  <path class="st2" d="M448.52,295.49s2.26-9.69,14.69-12.15c15.61-3.1,24.54,15.33,25.37,16.19,0,0-16.75-11.57-40.05-4.03Z"/>
  <g>
    <path class="st3" d="M470.16,323.24c6.13,5.81,4.77,14.69-1.71,19.66-3.26,2.5-5.86,2.83-9.95,2.25-2.81-.39-11.74-4.5-8.63-8.14,1.44-1.69,2.73.49,3.66,1.07,4.59,2.85,9.63,4.47,13.92.19,3.59-3.58,3.61-9.09-.24-12.48-1.53-1.35-5.57-2.56-4.86-4.85.58-1.9,6.96-1.64,9.06-2.07,1.86-.39,5.08-.92,3.02-3.4-3.42-4.12-15.5-3.16-16.52-3.32s-1.41-.38-1.28-1.04c.55-2.9,9.28-3.5,13.45-2.55,11.54,2.62,13.41,13.67.09,14.7Z"/>
    <path class="st3" d="M459.34,314.1c2.48-.42.24,8.69,0,9.87-.41,2-2.11,9.95-3.51,10.81-1.71,1.06-3.1-.78-2.68-2.48,1.84-4.91,2.77-10.35,4.55-15.23.26-.72.87-2.84,1.64-2.97Z"/>
    <path class="st3" d="M465.23,301.09c2.22-.47,2.21,4.7-.61,4.12-1.74-.36-.95-3.79.61-4.12Z"/>
    <path class="st3" d="M451.37,344.94c2.49-.6,2.56,3.94-.2,3.37-1.56-.32-1.1-3.06.2-3.37Z"/>
    <path class="st3" d="M471.38,301.68c1.67.86-.36,4.19-1.8,3.69-2.12-.6.13-4.55,1.8-3.69Z"/>
    <path class="st3" d="M458.01,350.35c-1.53,1.46-3.2-1.58-1.33-2.43s2.43,1.37,1.33,2.43Z"/>
  </g>
  <path d="M471.66,277.84s-16.39-5.37-19.96-8.1c-.51-.39-5.79-4.63-.29-8.97.17-.18,3.76-2.02,6.77-2.79s8.6-2.91,7.42-7.18c-1.01-3.67-5.6-3.37-8.75-2.49-.42-.4-.95-.66-1.62-.77-.15-1.08-.23-2.49-1.94-2.49-1.88,0-4.87,2.95-6.46,1.06-.58-.69-.21-1.84-1.77-1.43-2.78.72-4.16,5.37-7.22,3.43-2.5-1.59-1.7-4.48-.44-6.6,2.33-3.91,10.38-11.91,10.87-15.65.3-2.27-1.37-3.82-3.59-3.4-4.53.85-9.69,7.28-11.42,11.4-.99,2.36-1.48,6.26-3.98,7.64-1.34.74-3.41.19-3.85-1.39-.54-1.96,2.66-4.3.85-6.65-1.12-1.46-2.59,1.45-4.4-.91-1.36-1.78-.77-3.88-1.56-5.91-1.8-4.59-6.39-8.09-10.86-4.31-2.68,2.27-.69,7.05-.43,9.95-.33.93-1.48-1.61-1.73-1.9-1.11-1.35-5.97-4.66-7.05-2.25-.75,1.67,4.35,7.33,6,8.35-.26.74-4.47-1.09-5.43.79-.91,1.79,2.14,2.51,1.7,4.83-.8,4.22-6.35,2.32-8.9,1.34-8.3-3.21-15.61-8.82-21.06-15.87-2.7-3.5-6.88-12.28-12.47-9.96-5.01,2.08-4.56,8.09-2.03,11.99,3.89,6.01,21.65,12.51,28.18,17.49,4.39,3.35,5.64,8.32-.37,10.63-4.91,1.88-20.63-3.57-26.84-3.93-6.19-.36-7.53,5.03-1.87,7.71,6.88,3.27,12.13,1.08,18.86.91,4.51-.12,10.07,2.51,7.65,7.84-2.87,6.31-18.85,12.15-25.59,12.44-1.92.08-4.05-1.13-5.23,1.25-1.28,2.6,1.77,5.05,4.12,5.37,4.9.68,15.77-5.44,21.15-6.83,2.53-.66,5.88-.15,4.89,3.23-1.59,5.4-15.01,5.95-15.94,14.22-.45,4.03,4.23,8.14,7.55,4.88,1.89-1.86,7.12.73,9.08.19,5.19-1.44,7-11.57,14.39-11.78.35,0,1.28.17,1.99.39-3.42,9.3-.57,15.21,6.99,15.17,5.08-.02,10.04-6.78,14.09-11.97,2.21-2.6.37,3.4,2.38,6.27.78,1.12,2.27,2.16,3.68,1.84,6.03-1.33,2.88-5.85,2.98-7.98s1.84-1.34,2.25-.94c3.34,5.1,7,11.83,10.27,8.79,4.64-4.32-.18-15.19-.99-20.33-1.67-8.18,29.97-6.6,29.97-6.6Z"/>
</svg>