<?xml version="1.0" encoding="UTF-8"?>
<svg xmlns="http://www.w3.org/2000/svg" viewBox="0 0 820 360" width="820" height="360">
  <rect width="820" height="360" fill="#111111"/>
  <text x="40" y="44" font-family="Inter, system-ui, sans-serif" font-size="20" font-weight="800" fill="white">Border Radius &amp; Spacing</text>
  <text x="40" y="62" font-family="Inter, system-ui, sans-serif" font-size="12" fill="#555">BitPopArt Design System · --radius: 0.5rem</text>

  <!-- Border radius samples -->
  <text x="40" y="96" font-family="Inter, system-ui, sans-serif" font-size="11" font-weight="700" fill="#666" letter-spacing="2">BORDER RADIUS</text>

  <rect x="40" y="110" width="80" height="80" rx="0" fill="#1f2937" stroke="#f97316" stroke-width="1.5"/>
  <text x="80" y="206" font-family="Inter, system-ui, sans-serif" font-size="11" fill="#aaa" text-anchor="middle">0 · sharp</text>

  <rect x="150" y="110" width="80" height="80" rx="4" fill="#1f2937" stroke="#f97316" stroke-width="1.5"/>
  <text x="190" y="206" font-family="Inter, system-ui, sans-serif" font-size="11" fill="#aaa" text-anchor="middle">4px · sm</text>

  <rect x="260" y="110" width="80" height="80" rx="6" fill="#1f2937" stroke="#f97316" stroke-width="1.5"/>
  <text x="300" y="206" font-family="Inter, system-ui, sans-serif" font-size="11" fill="#aaa" text-anchor="middle">6px · md</text>

  <rect x="370" y="110" width="80" height="80" rx="8" fill="#1f2937" stroke="#f97316" stroke-width="2"/>
  <text x="410" y="206" font-family="Inter, system-ui, sans-serif" font-size="11" fill="#f97316" text-anchor="middle" font-weight="700">8px · DEFAULT ★</text>

  <rect x="480" y="110" width="80" height="80" rx="12" fill="#1f2937" stroke="#f97316" stroke-width="1.5"/>
  <text x="520" y="206" font-family="Inter, system-ui, sans-serif" font-size="11" fill="#aaa" text-anchor="middle">12px · xl</text>

  <rect x="590" y="110" width="80" height="80" rx="16" fill="#1f2937" stroke="#f97316" stroke-width="1.5"/>
  <text x="630" y="206" font-family="Inter, system-ui, sans-serif" font-size="11" fill="#aaa" text-anchor="middle">16px · 2xl</text>

  <rect x="700" y="110" width="80" height="80" rx="40" fill="#1f2937" stroke="#f97316" stroke-width="1.5"/>
  <text x="740" y="206" font-family="Inter, system-ui, sans-serif" font-size="11" fill="#aaa" text-anchor="middle">full · pill</text>

  <!-- Spacing scale -->
  <line x1="40" y1="228" x2="780" y2="228" stroke="#222" stroke-width="1"/>
  <text x="40" y="252" font-family="Inter, system-ui, sans-serif" font-size="11" font-weight="700" fill="#666" letter-spacing="2">SPACING SCALE (px)</text>

  <rect x="40" y="266" width="4" height="30" rx="1" fill="#f97316"/>
  <text x="42" y="310" font-family="Inter, sans-serif" font-size="10" fill="#666">4</text>

  <rect x="60" y="266" width="8" height="30" rx="1" fill="#f97316"/>
  <text x="62" y="310" font-family="Inter, sans-serif" font-size="10" fill="#666">8</text>

  <rect x="86" y="266" width="12" height="30" rx="1" fill="#f97316"/>
  <text x="88" y="310" font-family="Inter, sans-serif" font-size="10" fill="#666">12</text>

  <rect x="116" y="266" width="16" height="30" rx="1" fill="#f97316"/>
  <text x="118" y="310" font-family="Inter, sans-serif" font-size="10" fill="#666">16</text>

  <rect x="152" y="266" width="20" height="30" rx="1" fill="#f97316"/>
  <text x="154" y="310" font-family="Inter, sans-serif" font-size="10" fill="#666">20</text>

  <rect x="192" y="266" width="24" height="30" rx="1" fill="#f97316"/>
  <text x="194" y="310" font-family="Inter, sans-serif" font-size="10" fill="#666">24</text>

  <rect x="238" y="266" width="32" height="30" rx="1" fill="#f97316"/>
  <text x="240" y="310" font-family="Inter, sans-serif" font-size="10" fill="#666">32</text>

  <rect x="296" y="266" width="40" height="30" rx="1" fill="#f97316"/>
  <text x="298" y="310" font-family="Inter, sans-serif" font-size="10" fill="#666">40</text>

  <rect x="360" y="266" width="48" height="30" rx="1" fill="#f97316"/>
  <text x="362" y="310" font-family="Inter, sans-serif" font-size="10" fill="#666">48</text>

  <rect x="436" y="266" width="64" height="30" rx="1" fill="#f97316"/>
  <text x="438" y="310" font-family="Inter, sans-serif" font-size="10" fill="#666">64</text>

  <text x="40" y="345" font-family="Inter, system-ui, sans-serif" font-size="11" fill="#555">Container max-width: 1400px (2xl screen) · Container padding: 2rem · Gap default: 12–16px (gap-3/gap-4)</text>
</svg>
