<?xml version="1.0" encoding="UTF-8"?>
<svg xmlns="http://www.w3.org/2000/svg" viewBox="0 0 425.2 425.2">
  <defs>
    <style>
      .cls-1 {
        fill: none;
        stroke-width: 11.07px;
      }

      .cls-1, .cls-2 {
        stroke: #000;
        stroke-linecap: round;
        stroke-linejoin: round;
      }

      .cls-3 {
        fill: #e82435;
      }

      .cls-2 {
        fill: #fff;
        stroke-width: 15.28px;
      }
    </style>
  </defs>
  <g id="Layer_1" data-name="Layer 1">
    <rect class="cls-3" x="-22.29" y="-13.57" width="470.19" height="446.08"/>
  </g>
  <g id="Layer_2" data-name="Layer 2">
    <g>
      <path class="cls-2" d="M213.71,192.44s33.58-56.98,74.41-22.35c38.67,32.8-24.87,101.89-75.33,120.19h-1.01c-50.46-18.31-118.54-80.75-75.33-120.19,41.49-37.87,77.26,22.35,77.26,22.35Z"/>
      <g>
        <g>
          <line class="cls-1" x1="307.15" y1="148.81" x2="316.31" y2="140.32"/>
          <line class="cls-1" x1="284.82" y1="137.87" x2="292.35" y2="116.25"/>
          <line class="cls-1" x1="257.86" y1="134.83" x2="257.17" y2="116.87"/>
          <line class="cls-1" x1="232.12" y1="144.27" x2="226.41" y2="133.59"/>
          <line class="cls-1" x1="320.99" y1="169.68" x2="336.5" y2="164.12"/>
          <line class="cls-1" x1="323.03" y1="191.92" x2="333.46" y2="194.77"/>
          <line class="cls-1" x1="315.34" y1="217.34" x2="330.03" y2="225.97"/>
        </g>
        <line class="cls-1" x1="120.35" y1="148.24" x2="112.22" y2="138.79"/>
        <line class="cls-1" x1="142.97" y1="137.41" x2="137.99" y2="115.09"/>
        <line class="cls-1" x1="170.1" y1="133.32" x2="172.86" y2="115.55"/>
        <line class="cls-1" x1="197.92" y1="146.38" x2="204.82" y2="136.4"/>
        <line class="cls-1" x1="105.01" y1="166.63" x2="90.25" y2="159.37"/>
        <line class="cls-1" x1="99.59" y1="188.49" x2="88.89" y2="190.16"/>
        <line class="cls-1" x1="101.79" y1="214.6" x2="86.19" y2="221.54"/>
        <line class="cls-1" x1="131.76" y1="263.16" x2="120.19" y2="274.86"/>
        <line class="cls-1" x1="112.43" y1="240.34" x2="106.46" y2="245.83"/>
        <line class="cls-1" x1="290.91" y1="261.35" x2="302.88" y2="272.64"/>
        <line class="cls-1" x1="307.63" y1="242.08" x2="314.04" y2="247.07"/>
        <line class="cls-1" x1="272.06" y1="283.3" x2="275.85" y2="288.08"/>
        <line class="cls-1" x1="245.11" y1="302.98" x2="249.88" y2="309.51"/>
        <line class="cls-1" x1="212.63" y1="312.22" x2="212.38" y2="324.31"/>
        <line class="cls-1" x1="147.82" y1="290.8" x2="153.02" y2="284.6"/>
        <line class="cls-1" x1="176.93" y1="309.8" x2="180.17" y2="302.43"/>
      </g>
    </g>
  </g>
</svg>